<?xml version="1.0" standalone="no"?>
<!DOCTYPE svg PUBLIC "-//W3C//DTD SVG 20010904//EN"
 "http://www.w3.org/TR/2001/REC-SVG-20010904/DTD/svg10.dtd">
<svg version="1.0" xmlns="http://www.w3.org/2000/svg"
 width="500.000000pt" height="500.000000pt" viewBox="0 0 500.000000 500.000000"
 preserveAspectRatio="xMidYMid meet">

<g transform="translate(0.000000,500.000000) scale(0.100000,-0.100000)"
fill="#000000" stroke="none">
<path d="M0 2500 l0 -2500 2500 0 2500 0 0 2500 0 2500 -2500 0 -2500 0 0
-2500z m4230 550 c12 -7 12 -13 4 -27 -10 -16 -30 -18 -162 -21 -152 -3 -192
4 -192 33 0 7 6 16 13 18 23 10 322 7 337 -3z m-86 -126 c13 -35 -15 -42 -176
-43 -162 -2 -187 4 -172 43 5 14 28 16 174 16 144 0 169 -2 174 -16z m-1364
-79 c58 -30 67 -90 21 -136 -33 -32 -58 -36 -100 -14 -67 34 -51 140 24 158
11 3 21 5 23 6 2 0 16 -6 32 -14z m423 -2 c14 -3 17 -16 17 -68 l0 -64 -56 6
c-63 7 -84 -7 -84 -54 0 -19 5 -23 29 -23 25 0 31 -7 53 -57 l25 -58 -53 -3
-54 -3 0 -215 0 -215 -72 3 -73 3 -3 212 -2 212 -33 3 c-32 3 -32 3 -33 61
l-1 57 33 0 c32 0 34 2 34 33 0 142 115 214 273 170z m920 -32 c5 -5 7 -17 4
-25 -5 -14 -30 -16 -166 -16 -88 0 -166 3 -175 6 -22 8 -20 33 3 42 28 10 323
4 334 -7z m45 -110 c8 -5 12 -17 10 -27 -3 -18 -16 -19 -169 -22 -147 -2 -168
0 -180 15 -12 14 -12 16 0 8 11 -6 13 -4 8 7 -3 9 -3 19 0 22 10 9 316 7 331
-3z m-2647 -57 c22 -12 44 -39 62 -73 27 -54 27 -55 27 -268 l0 -213 -80 0
-80 0 0 189 c0 185 -1 191 -24 217 -46 54 -136 28 -155 -43 -6 -21 -11 -111
-11 -200 l0 -163 -80 0 -80 0 0 189 c0 183 -1 191 -23 216 -37 44 -121 34
-148 -18 -8 -14 -13 -84 -14 -197 -1 -96 -3 -179 -3 -183 -1 -4 -37 -7 -79 -5
-43 2 -77 6 -75 11 1 4 2 131 2 282 l0 275 75 0 c68 0 75 -2 75 -20 0 -25 5
-25 43 2 23 17 50 24 99 26 59 4 73 1 113 -22 25 -15 45 -31 45 -36 0 -16 26
-12 41 6 50 60 189 75 270 28z m299 -178 c0 -160 2 -175 21 -200 29 -37 95
-37 130 0 23 25 24 31 27 200 l4 174 80 0 80 0 -4 -187 c-3 -179 -4 -190 -28
-233 -83 -148 -289 -173 -406 -48 -61 64 -64 79 -64 283 l0 185 80 0 80 0 0
-174z m738 141 c28 -15 52 -31 52 -36 0 -7 -45 -96 -56 -110 -2 -2 -24 7 -49
19 -62 30 -126 37 -144 17 -10 -13 -8 -18 11 -31 13 -9 51 -25 84 -36 114 -39
164 -91 164 -170 0 -73 -55 -140 -133 -161 -84 -23 -219 7 -291 65 -18 15 -18
17 15 68 18 29 34 54 35 56 1 2 20 -8 42 -22 57 -36 126 -52 158 -37 45 20 26
44 -56 72 -151 52 -184 84 -178 180 5 68 34 114 92 141 61 28 182 21 254 -15z
m262 -242 l0 -275 -75 0 -75 0 0 275 0 275 75 0 75 0 0 -275z m590 104 c35
-93 67 -172 71 -174 3 -3 33 73 66 168 l60 172 76 3 c43 2 77 0 77 -4 0 -18
-224 -584 -246 -622 -36 -61 -75 -82 -151 -82 -50 0 -143 23 -143 35 0 1 12
28 26 59 22 49 28 55 44 46 31 -17 85 -12 104 9 16 18 12 31 -93 284 -61 146
-111 268 -111 271 0 3 35 6 78 6 l78 0 64 -171z"/>
<path d="M4033 3043 c9 -2 25 -2 35 0 9 3 1 5 -18 5 -19 0 -27 -2 -17 -5z"/>
<path d="M4200 3041 c0 -6 4 -13 10 -16 6 -3 7 1 4 9 -7 18 -14 21 -14 7z"/>
<path d="M4100 2681 c42 -4 57 -9 42 -13 -22 -6 -22 -6 0 -4 12 0 23 7 26 14
3 9 -14 12 -65 10 l-68 -1 65 -6z"/>
</g>
</svg>
